<?xml version="1.0" encoding="utf-8"?>
<svg viewBox="0 0 500 500" xmlns="http://www.w3.org/2000/svg">
  <path d="M 139.067 335.454 L 26.857 335.454 C 23.79 335.454 21.49 334.457 19.957 332.464 C 18.424 330.471 17.964 327.941 18.577 324.874 L 82.497 24.564 C 83.11 21.191 84.567 18.507 86.867 16.514 C 89.167 14.521 91.85 13.524 94.917 13.524 L 194.257 13.524 C 214.797 13.524 232.887 16.207 248.527 21.574 C 264.16 26.941 276.884 34.911 286.697 45.484 C 296.51 56.064 303.177 69.171 306.697 84.804 C 310.224 100.444 309.994 118.227 306.007 138.154 C 303.254 151.954 300.804 164.064 298.657 174.484 C 296.51 184.911 293.75 196.871 290.377 210.364 C 283.937 238.571 274.737 261.947 262.777 280.494 C 250.824 299.047 235.034 312.844 215.407 321.884 C 195.787 330.931 170.34 335.454 139.067 335.454 Z M 121.587 52.614 L 69.627 296.364 L 139.527 296.364 C 160.68 296.364 178.157 293.451 191.957 287.624 C 205.75 281.797 216.864 272.447 225.297 259.574 C 233.73 246.694 240.4 229.677 245.307 208.524 C 247.454 199.324 249.37 191.274 251.057 184.374 C 252.744 177.481 254.277 170.584 255.657 163.684 C 257.037 156.784 258.49 148.887 260.017 139.994 C 265.844 110.254 263.47 88.257 252.897 74.004 C 242.317 59.744 221.084 52.614 189.197 52.614 L 121.587 52.614 Z" style="white-space: pre; fill: rgb(255, 255, 255);"/>
  <path d="M 223.404 484.123 L 198.454 484.123 C 194.867 484.123 192.341 483.063 190.874 480.943 C 189.407 478.823 189.001 476.133 189.654 472.873 L 257.644 153.423 C 258.297 149.836 259.847 146.983 262.294 144.863 C 264.741 142.743 267.757 141.683 271.344 141.683 L 390.714 141.683 C 427.567 141.683 454.881 150.326 472.654 167.613 C 490.427 184.9 495.727 210.5 488.554 244.413 C 483.334 269.526 472.814 289.993 456.994 305.813 C 441.181 321.626 421.694 332.633 398.534 338.833 L 446.484 468.953 C 446.804 469.933 446.964 470.75 446.964 471.403 C 446.964 472.056 446.804 473.036 446.484 474.343 C 446.157 476.95 444.687 479.23 442.074 481.183 C 439.467 483.143 436.861 484.123 434.254 484.123 L 410.764 484.123 C 405.224 484.123 401.474 482.656 399.514 479.723 C 397.561 476.783 395.931 473.846 394.624 470.913 L 350.104 346.653 L 264.494 346.653 L 237.594 472.873 C 236.941 476.133 235.311 478.823 232.704 480.943 C 230.091 483.063 226.991 484.123 223.404 484.123 Z M 299.234 182.773 L 273.304 305.073 L 354.024 305.073 C 378.484 305.073 397.807 299.936 411.994 289.663 C 426.181 279.39 435.394 264.143 439.634 243.923 C 443.874 224.03 441.181 208.866 431.554 198.433 C 421.934 187.993 404.731 182.773 379.944 182.773 L 299.234 182.773 Z" style="white-space: pre; fill: rgb(255, 255, 255);"/>
</svg>