<?xml version="1.0" encoding="utf-8"?>
<svg viewBox="0 0 500 500" xmlns="http://www.w3.org/2000/svg">
  <path d="M 137.91 336.621 L 25.7 336.621 C 22.633 336.621 20.333 335.624 18.8 333.631 C 17.267 331.638 16.807 329.108 17.42 326.041 L 81.34 25.731 C 81.953 22.358 83.41 19.674 85.71 17.681 C 88.01 15.688 90.693 14.691 93.76 14.691 L 193.1 14.691 C 213.64 14.691 231.73 17.374 247.37 22.741 C 263.003 28.108 275.727 36.078 285.54 46.651 C 295.353 57.231 302.02 70.338 305.54 85.971 C 309.067 101.611 308.837 119.394 304.85 139.321 C 302.097 153.121 299.647 165.231 297.5 175.651 C 295.353 186.078 292.593 198.038 289.22 211.531 C 282.78 239.738 273.58 263.114 261.62 281.661 C 249.667 300.214 233.877 314.011 214.25 323.051 C 194.63 332.098 169.183 336.621 137.91 336.621 Z M 120.43 53.781 L 68.47 297.531 L 138.37 297.531 C 159.523 297.531 177 294.618 190.8 288.791 C 204.593 282.964 215.707 273.614 224.14 260.741 C 232.573 247.861 239.243 230.844 244.15 209.691 C 246.297 200.491 248.213 192.441 249.9 185.541 C 251.587 178.648 253.12 171.751 254.5 164.851 C 255.88 157.951 257.333 150.054 258.86 141.161 C 264.687 111.421 262.313 89.424 251.74 75.171 C 241.16 60.911 219.927 53.781 188.04 53.781 L 120.43 53.781 Z" transform="matrix(1, 0, 0, 1, 0, 0)" style="fill: rgb(51, 51, 51); white-space: pre;"/>
  <path d="M 222.247 485.29 L 197.297 485.29 C 193.71 485.29 191.184 484.23 189.717 482.11 C 188.25 479.99 187.844 477.3 188.497 474.04 L 256.487 154.59 C 257.14 151.003 258.69 148.15 261.137 146.03 C 263.584 143.91 266.6 142.85 270.187 142.85 L 389.557 142.85 C 426.41 142.85 453.724 151.493 471.497 168.78 C 489.27 186.067 494.57 211.667 487.397 245.58 C 482.177 270.693 471.657 291.16 455.837 306.98 C 440.024 322.793 420.537 333.8 397.377 340 L 445.327 470.12 C 445.647 471.1 445.807 471.917 445.807 472.57 C 445.807 473.223 445.647 474.203 445.327 475.51 C 445 478.117 443.53 480.397 440.917 482.35 C 438.31 484.31 435.704 485.29 433.097 485.29 L 409.607 485.29 C 404.067 485.29 400.317 483.823 398.357 480.89 C 396.404 477.95 394.774 475.013 393.467 472.08 L 348.947 347.82 L 263.337 347.82 L 236.437 474.04 C 235.784 477.3 234.154 479.99 231.547 482.11 C 228.934 484.23 225.834 485.29 222.247 485.29 Z M 298.077 183.94 L 272.147 306.24 L 352.867 306.24 C 377.327 306.24 396.65 301.103 410.837 290.83 C 425.024 280.557 434.237 265.31 438.477 245.09 C 442.717 225.197 440.024 210.033 430.397 199.6 C 420.777 189.16 403.574 183.94 378.787 183.94 L 298.077 183.94 Z" transform="matrix(1, 0, 0, 1, 0, 0)" style="fill: rgb(51, 51, 51); white-space: pre;"/>
</svg>